<svg xmlns="http://www.w3.org/2000/svg" xmlns:xlink="http://www.w3.org/1999/xlink" width="60" height="60" viewBox="0 0 60 60"><defs><style>.cls-1{fill:url(#radial-gradient);}.cls-2{fill:url(#radial-gradient-2);}.cls-3{fill:url(#linear-gradient);}.cls-4{fill:#fffffd;fill-rule:evenodd;}</style><radialGradient id="radial-gradient" cx="29.78" cy="17.03" r="30" gradientUnits="userSpaceOnUse"><stop offset="0" stop-opacity="0.1"/><stop offset="0.86" stop-opacity="0.04"/><stop offset="1" stop-opacity="0"/></radialGradient><radialGradient id="radial-gradient-2" cx="-30.24" cy="-31.71" fx="-55.737754832068404" r="100.37" gradientTransform="translate(-16.22 16) rotate(21.08) scale(1 1.24)" gradientUnits="userSpaceOnUse"><stop offset="0.8" stop-opacity="0"/><stop offset="0.88" stop-opacity="0.03"/><stop offset="0.95" stop-opacity="0"/></radialGradient><linearGradient id="linear-gradient" x1="-2149.58" y1="1.86" x2="-2195.09" y2="56.11" gradientTransform="translate(-2166.47 60) rotate(180)" gradientUnits="userSpaceOnUse"><stop offset="0.1" stop-opacity="0"/><stop offset="0.48" stop-color="#202020" stop-opacity="0.01"/><stop offset="0.78" stop-color="#848484" stop-opacity="0.05"/><stop offset="1" stop-color="#fff" stop-opacity="0.1"/></linearGradient></defs><g id="Frame"><g id="Mollie_-_BG" data-name="Mollie - BG"><g id="Gradient-WHITE_colors" data-name="Gradient-WHITE colors"><rect width="60" height="60" rx="6"/></g><g id="Gradient-WHITE_colors-2" data-name="Gradient-WHITE colors"><rect class="cls-1" width="60" height="60" rx="6"/></g><path class="cls-2" d="M54,0H42.47C36,24.92,24.34,45.93,9.43,60H54a6,6,0,0,0,6-6V6A6,6,0,0,0,54,0Z"/><path class="cls-3" d="M0,6V54a6,6,0,0,0,6,6H9.43C24.34,45.93,36,24.92,42.47,0H6A6,6,0,0,0,0,6Z"/></g></g><g id="Icon"><path id="Mollie" class="cls-4" d="M38.49,17.28c-.31,0-.61,0-.92,0A10.43,10.43,0,0,0,30,20.52a10.39,10.39,0,0,0-18,7.12V40.76h5.61v-13A5,5,0,0,1,21.87,23l.47,0a4.75,4.75,0,0,1,4.73,4.71V40.76H32.8v-13A4.94,4.94,0,0,1,37.06,23l.47,0a4.75,4.75,0,0,1,4.74,4.69V40.76H48v-13a10.65,10.65,0,0,0-2.73-7.12,10.24,10.24,0,0,0-6.78-3.4"/></g></svg>